<?xml version="1.0" encoding="UTF-8"?>
<svg width="100mm" height="100mm" version="1.1" viewBox="0 0 100 100" xmlns="http://www.w3.org/2000/svg">
   <g transform="matrix(.94035 0 0 1 2.8835 0)" fill="#f00">
      <path d="m42.521 95.53v-1.0603h-1.9406v-2.2453h-1.9406v-2.1205h-3.8811v-2.2453h-1.9406v-2.1205h-1.9406v-2.2453h-1.9406v-8.7316h1.9406v2.2453h1.9406v4.3658h1.9406v2.1205h1.9406v-4.3658h-1.9406v-4.3658h-1.9406v-2.1205h-9.7028v-2.2453h-1.9406v-4.3658h-1.9406v-4.3658h-1.9406v-4.3658h-1.9406v-6.4864h-1.9406v-10.977h3.8811v-2.1205h1.9406v-2.2453h1.9406v-6.4864h1.9406v-8.7316h-1.9406v2.1205h-1.9406v6.6111h-1.9406v4.3658h-1.9406v2.1205h-1.9406v-6.4864h1.9406v-4.3658h1.9406v-4.3658h1.9406v-2.2453h1.9406v-2.1205h1.9406v-2.2453h1.9406v-2.1205h1.9406v-2.2453h3.8811v-2.1205h3.8811v-2.2453h5.8217v-2.1205h15.524v2.1205h5.8217v2.2453h3.8811v2.1205h3.8811v2.2453h1.9406v2.1205h1.9406v2.2453h1.9406v2.1205h1.9406v2.2453h1.9406v4.3658h1.9406v4.3658h1.9406v6.4864h-1.9406v-2.1205h-1.9406v-4.3658h-1.9406v-6.6111h-1.9406v-2.1205h-1.9406v8.7316h1.9406v6.4864h1.9406v2.2453h1.9406v2.1205h3.8811v10.977h-1.9406v6.4864h-1.9406v4.3658h-1.9406v4.3658h-1.9406v4.3658h-1.9406v2.2453h-9.7028v2.1205h-1.9406v4.3658h-1.9406v4.3658h1.9406v-2.1205h1.9406v-4.3658h1.9406v-2.2453h1.9406v8.7316h-1.9406v2.2453h-1.9406v2.1205h-1.9406v2.2453h-3.8811v2.1205h-1.9406v2.2453h-1.9406v2.1205h-11.643zm1.9406-8.7316v-1.0603h7.7622v2.1205h1.9406v-2.1205h-1.9406v-2.2453h-7.7622v2.2453h-1.9406v2.1205h1.9406zm1.9406-10.915v-1.1226h-1.9406v2.2453h1.9406zm5.8217 0v-1.1226h-1.9406v2.2453h1.9406zm-9.7028-6.5487v-3.3055h1.9406v4.3658h1.9406v-4.3658h-1.9406v-4.3658h-1.9406v-4.3658h-1.9406v-2.1205h-1.9406v2.1205h1.9406v4.3658h-1.9406v-2.1205h-1.9406v-2.2453h-1.9406v-2.1205h-1.9406v-2.2453h-3.8811v-2.1205h-3.8811v-2.2453h-3.8811v2.2453h-1.9406v6.4864h1.9406v4.3658h1.9406v2.2453h1.9406v2.1205h1.9406v2.2453h7.7622v2.1205h5.8217v2.2453h1.9406zm-1.9406-5.4884v-2.1829h1.9406v4.3658h-1.9406zm15.524 7.6713v-1.1226h5.8217v-2.1205h7.7622v-2.2453h1.9406v-2.1205h1.9406v-2.2453h1.9406v-4.3658h1.9406v-6.4864h-1.9406v-2.2453h-3.8811v2.2453h-3.8811v2.1205h-3.8811v2.2453h-1.9406v2.1205h-1.9406v2.2453h-1.9406v2.1205h-1.9406v-4.3658h1.9406v-2.1205h-1.9406v2.1205h-1.9406v4.3658h-1.9406v4.3658h-1.9406v4.3658h1.9406v-4.3658h1.9406v6.6111h1.9406zm-1.9406-7.6713v-2.1829h1.9406v4.3658h-1.9406zm-29.108-44.718v-1.1226h-1.9406v2.2453h1.9406zm48.514 0v-1.1226h-1.9406v2.2453h1.9406z" fill="#f00" stroke-width=".12703"/>
   </g>
</svg>
